<svg width="50" height="50"><path style="fill:#fff;stroke:none" d="M0 0v50h50V0H0z"/><path style="fill:#bce2cd;stroke:none" d="M7 8v34h1L7 8z"/><path style="fill:#41d583;stroke:none" d="M8 8v1h11L8 8z"/><path style="fill:#e6e6e6;stroke:none" d="m19 8 11 15V8H19z"/><path style="fill:#bfe2cf;stroke:none" d="M30 8v17h1L30 8z"/><path style="fill:#02cf5c;stroke:none" d="M31 8v17h-1C24.706 14.358 19.96 9 8 9v33h11V25h1c5.119 10.773 9.966 17 22 17V8H31z"/><path style="fill:#c6e3d3;stroke:none" d="M42 8v34h1L42 8z"/><path style="fill:#c4e3d1;stroke:none" d="M19 25v17h1l-1-17z"/><path style="fill:#e6e6e6;stroke:none" d="M20 28v14h11l-9-14h-2z"/></svg>